<svg xmlns="http://www.w3.org/2000/svg" viewBox="0 0 60 60" style="enable-background:new 0 0 60 60" xml:space="preserve"><path d="M45 60H15C6.72 60 0 53.28 0 45V15C0 6.72 6.72 0 15 0h30c8.28 0 15 6.72 15 15v30c0 8.28-6.72 15-15 15z" style="fill-rule:evenodd;clip-rule:evenodd"/><path d="M30 8.07c-12.42 0-22.5 10.08-22.5 22.5 0 9.9 6.48 18.36 15.39 21.33 1.17.18 1.53-.45 1.53-1.08v-3.87c-6.3 1.35-7.56-3.06-7.56-3.06-.99-2.61-2.52-3.33-2.52-3.33-2.07-1.44.18-1.35.18-1.35 2.25.18 3.42 2.34 3.42 2.34 1.98 3.42 5.31 2.43 6.57 1.89.18-1.44.81-2.43 1.44-2.97-5.04-.54-10.35-2.43-10.35-11.07 0-2.43.9-4.5 2.34-6.03-.27-.54-.99-2.88.18-5.94 0 0 1.89-.63 6.21 2.34 1.8-.54 3.69-.72 5.67-.72 1.89 0 3.87.27 5.67.72 4.32-2.88 6.21-2.34 6.21-2.34 1.26 3.06.45 5.4.18 5.94 1.44 1.53 2.34 3.6 2.34 6.03 0 8.64-5.22 10.53-10.26 11.07.81.72 1.53 2.07 1.53 4.14v6.21c0 .63.45 1.26 1.53 1.08 8.82-2.97 15.3-11.34 15.3-21.33 0-12.42-10.08-22.5-22.5-22.5z" style="fill-rule:evenodd;clip-rule:evenodd;fill:#fff"/></svg>