<svg xmlns="http://www.w3.org/2000/svg" viewBox="0 0 60 60" fill="#000"><path d="M45 60H15C6.72 60 0 53.28 0 45V15C0 6.72 6.72 0 15 0h30c8.28 0 15 6.72 15 15v30c0 8.28-6.72 15-15 15z"/><path fill="#fff" d="M47.91 20.82v1.17c0 12.24-9.27 26.28-26.28 26.28-5.04 0-9.9-1.44-14.13-4.14.72.09 1.44.09 2.16.09 4.14 0 8.19-1.35 11.43-3.96-3.96-.09-7.38-2.61-8.64-6.39 1.35.27 2.79.18 4.14-.18-4.23-.81-7.29-4.59-7.29-9v-.09c1.26.72 2.7 1.08 4.23 1.17-4.05-2.7-5.31-8.1-2.88-12.33a26.163 26.163 0 0 0 18.99 9.63c-.72-3.24.27-6.57 2.7-8.82 3.69-3.51 9.54-3.33 13.05.36 2.07-.45 4.05-1.17 5.85-2.25a9.583 9.583 0 0 1-4.05 5.13c1.8-.18 3.6-.72 5.31-1.44-1.26 1.89-2.79 3.42-4.59 4.77z"/></svg>