<svg xmlns="http://www.w3.org/2000/svg" viewBox="0 0 60 60"><path fill="#000" d="M45 60H15C6.72 60 0 53.28 0 45V15C0 6.72 6.72 0 15 0h30c8.28 0 15 6.72 15 15v30c0 8.28-6.72 15-15 15z"/><path d="M10.65 10.65C7.5 13.8 7.5 18.93 7.5 29.1v1.8c0 10.17 0 15.3 3.15 18.45 3.15 3.15 8.28 3.15 18.45 3.15h1.8c10.17 0 15.3 0 18.45-3.15 3.15-3.15 3.15-8.28 3.15-18.45v-1.8c0-10.17 0-15.3-3.15-18.45C46.2 7.5 41.07 7.5 30.9 7.5h-1.8c-10.17 0-15.3 0-18.45 3.15zm4.41 10.53c.27 11.7 6.12 18.72 16.38 18.72h.54v-6.66c3.78.36 6.66 3.15 7.74 6.66h5.31c-1.44-5.31-5.31-8.28-7.74-9.36 2.43-1.35 5.76-4.77 6.57-9.36H39c-1.08 3.69-4.14 7.11-7.11 7.38v-7.38h-4.86v12.96c-2.97-.72-6.75-4.41-6.93-12.96h-5.04z" style="fill-rule:evenodd;clip-rule:evenodd;fill:#fff"/></svg>